<svg xmlns="http://www.w3.org/2000/svg" width="96" height="96" viewBox="0 0 96 96" role="img" aria-labelledby="logo-title logo-desc">
  <title id="logo-title">LLXiao Experience Map mark</title>
  <desc id="logo-desc">A route-map logo mark with connected nodes and a red active path.</desc>
  <g fill="none" stroke-linecap="round" stroke-linejoin="round">
    <path d="M18 76 18 24 38 16 56 24 78 16 78 68 58 80 38 72 18 80Z" stroke="#d6d6d6" stroke-width="5"/>
    <path d="M22 69 22 46 39 46 39 28 56 28" stroke="#fff" stroke-width="13"/>
    <path d="M22 69 22 46 39 46 39 28 56 28" stroke="#222" stroke-width="7"/>
    <path d="M56 28 74 28 62 47 75 66" stroke="#fff" stroke-width="13"/>
    <path d="M56 28 74 28 62 47 75 66" stroke="#e60000" stroke-width="7"/>
    <circle cx="22" cy="69" r="6" fill="#222" stroke="#fff" stroke-width="4"/>
    <circle cx="39" cy="46" r="5" fill="#fff" stroke="#222" stroke-width="4"/>
    <circle cx="56" cy="28" r="5" fill="#fff" stroke="#e60000" stroke-width="4"/>
    <circle cx="75" cy="66" r="6" fill="#e60000" stroke="#fff" stroke-width="4"/>
  </g>
</svg>
