<?xml version="1.0" encoding="UTF-8"?>
<svg width="181px" height="110px" viewBox="0 0 181 110" version="1.1" xmlns="http://www.w3.org/2000/svg" xmlns:xlink="http://www.w3.org/1999/xlink">
    <title>编组 2</title>
    <g id="页面-1" stroke="none" stroke-width="1" fill="none" fill-rule="evenodd">
        <g id="编组-2">
            <rect id="矩形" x="0" y="0" width="181" height="110"></rect>
            <path d="M98.0674012,44.7903284 C95.8509511,44.7903284 93.9092612,44.7903284 91.6928111,44.7903284 C91.6928111,41.6865032 74.7300694,37.498277 73.2963176,33.5948434 C72.0540921,30.2128461 75.2476983,28.0079681 77.0612303,26.0900458 C78.8747623,24.1721234 83.8762973,18.1561376 85.6791588,18.1561376 C89.1620495,17.9964107 91.8298946,18.1135349 95.3127853,17.953808 C96.8151096,16.5031243 105.377011,8.82553079 104.134949,7.86918383 C102.839455,6.80961538 80.3218458,7.4309838 77.4795943,7.4309838 C74.7255731,7.4309838 72.0138427,20.8775756 66.6118422,22.7333819 C63.6038369,22.7333819 60.5951157,22.7333819 57.587349,22.7333819 C53.4445772,22.9592895 52.6089854,21.8270386 50.4961237,20.0177159 C46.7211039,16.7850248 48.250284,14.02364 47.4073295,10.0968558 C46.5124663,10.3926993 44.6003948,11.0088274 43.7442033,11.5056509 C43.3270678,13.3329174 44.1571231,16.6810076 43.5753658,18.6577069 C43.175105,20.0177159 36.2895004,26.2581503 34.2400033,28.3179069 C32.1905062,30.3776636 25.0514939,37.8435176 22.2712509,40.3115887 C18.6301446,40.3115887 10.8540742,40.3115887 9.81050908,40.3115887 C10.507,41.2888646 13.1772109,43.3520665 14.6018672,44.7903284 C14.541015,48.8741576 13.5485284,51.3017192 15.0769912,53.4213387 C18.1642236,57.5343335 30.5136306,57.5343335 25.0514939,66.3678543 C26.4499002,68.9796055 30.5964373,70.383092 30.5136306,75.9577059 C32.6510923,75.1684246 36.6418002,72.98525 39.5381239,73.7999533 C44.5086707,75.1981635 48.5635717,81.4205589 49.0377412,87.2258894 C48.2421313,89.5151319 45.7984977,89.0260552 44.2879325,90.5823135 C44.4461481,90.5823135 49.4282701,92.6712348 51.1252099,94.1785678 C53.3981936,99.7753073 58.9102781,100.132494 62.5925416,102.367755 C58.3248087,98.494073 51.9168228,81.6865122 49.6683617,75.4299498 C51.0140294,73.272437 52.441882,70.6831196 53.7875498,68.5256069 C54.8800249,66.7331157 55.5952166,64.0640451 57.587349,63.2510206 C65.1862314,63.0912936 72.7872616,62.9313269 80.3861441,62.7716 C79.7103273,72.5876115 69.0285768,69.6733844 61.2002655,70.1919632 C60.013052,72.0297822 58.2996771,74.1198868 57.1122249,75.9577059 C59.6453448,82.030687 62.178942,88.1055867 64.7118233,94.1785678 C66.8929553,97.6165342 71.8449181,102.107134 71.9927216,105.665551 C72.1405252,109.223968 63.0494857,110.599369 61.3871482,109.762257 C56.8752595,107.364914 52.9067905,105.190962 48.3949019,102.793619 C47.5241195,101.43522 46.4436113,99.5775069 45.237942,98.494073 C41.088818,96.279506 37.2960272,98.2565186 36.2450974,87.6130297 C36.6883341,86.0630938 39.4591354,85.0681369 40.9630187,84.348886 C40.8048032,84.1891591 39.2214541,82.1112699 38.5883531,81.2322921 C32.963228,81.9570591 25.8922002,86.2187297 23.6798206,82.9347958 C21.4674411,79.6508619 25.0514939,77.0407839 18.1642236,69.4844481 C18.1642236,67.4869021 18.1642236,65.4883968 18.1642236,63.4908508 C14.2646747,61.648475 8.07970981,58.5846438 7.0022688,54.1405896 C7.08149591,51.9830768 7.16072302,49.8248446 7.23995014,47.6673318 C5.43687995,45.7272381 -0.634217417,42.1028551 3.30286636,37.30185 C7.23995014,32.5008448 8.56199294,33.2933468 14.8395485,33.2825544 C16.2642047,33.2024511 17.6893382,33.1225877 19.1142331,33.0427242 C23.3886791,28.8874256 27.6643182,24.7309279 31.9385255,20.5758691 C33.4424089,18.897777 34.9470081,17.2192052 36.4508914,15.5411131 C36.5301186,13.3836003 36.609107,11.2253681 36.6883341,9.06785532 C38.0774336,5.81431841 45.3197941,1.43046162 50.9375214,2.83442779 C56.0242839,4.10552802 53.5381753,11.1622927 55.6873301,15.3012829 C58.1412229,15.3811463 60.5955929,15.4612496 63.0494857,15.5411131 C66.1364795,10.5867002 69.2244279,5.63084828 72.3114217,0.676675205 C74.1124067,-0.480265829 78.9073175,0.197014743 81.5735962,0.197014743 C90.0430224,0.27711804 98.5150736,0.356981507 106.984738,0.436844974 C116.072432,7.86918383 111.436552,12.0265012 103.944157,19.2395653 C102.081114,21.033151 100.580012,22.9136305 98.3693427,24.8317926 C94.886452,24.9915196 91.2309518,24.9712378 87.7482997,25.1309647 C85.7692924,27.0488871 82.3136397,30.7447108 81.5735962,31.1776622 C84.5948221,32.5488035 96.1804861,37.5849566 97.2476784,38.7967311 C98.3148706,40.0085056 98.1277761,42.6253809 98.0674012,44.7903284 Z" id="路径" fill="#BCBDC1"></path>
            <g id="Lilongxiao" transform="translate(37.000000, 42.000000)" fill="#FF2323" fill-rule="nonzero">
                <path d="M7.24710055,1.66906475 L5.37236798,15.1942446 L15.8372931,15.1942446 L15.5854633,17.9568345 L1.62290283,17.9568345 C1.08193522,17.9568345 0.676209511,17.7745803 0.405725707,17.4100719 C0.135241902,17.0455635 0,16.5851319 0,16.028777 L1.62290283,2.76258993 L0.811451413,1.66906475 L7.24710055,1.66906475 Z" id="路径"></path>
                <path d="M23.9917802,4.97841727 L18.871242,4.97841727 L19.1510528,1.66906475 L24.5234208,1.66906475 L23.9917802,4.97841727 Z M23.9917802,5.81294964 L22.3688774,17.9568345 L16.9965094,17.9568345 L18.6194122,6.61870504 L17.8079608,5.81294964 L23.9917802,5.81294964 Z" id="形状"></path>
                <path d="M33.4893593,0 L31.3348159,15.1942446 L33.2095485,17.9568345 L27.5853507,17.9568345 C27.0443831,17.9568345 26.6386574,17.7745803 26.3681736,17.4100719 C26.0976898,17.0455635 25.9624479,16.5851319 25.9624479,16.028777 L28.1169913,0.834532374 L27.3055399,0 L33.4893593,0 Z" id="路径"></path>
                <path d="M48.3593064,5.81294964 C48.900274,5.81294964 49.3059997,6.0383693 49.5764835,6.48920863 C49.8469673,6.94004796 49.9822092,7.44364508 49.9822092,8 L48.6391172,17.9568345 L36.5512893,17.9568345 C36.0103217,17.9568345 35.604596,17.7745803 35.3341121,17.4100719 C35.0636283,17.0455635 34.9283864,16.5851319 34.9283864,16.028777 L36.2714784,5.81294964 L48.3593064,5.81294964 Z M41.3640356,8.57553957 L40.3007544,15.1942446 L43.518579,15.1942446 L44.6098412,8.57553957 L41.3640356,8.57553957 Z" id="形状"></path>
                <polygon id="路径" points="67.0066997 5.81294964 65.3837969 17.9568345 60.0114289 17.9568345 61.3545209 8.57553957 58.1366963 8.57553957 56.7936043 17.9568345 51.4212363 17.9568345 53.0441392 6.61870504 52.2326878 5.81294964"></polygon>
                <path d="M77.3157302,21.2374101 L77.8473708,17.9568345 L69.2571782,17.9568345 L70.8521,5.81294964 L84.8426416,5.81294964 L82.6880982,22.0719424 C82.613482,22.6282974 82.3709792,23.088729 81.96059,23.4532374 C81.5502008,23.8177458 81.0745224,24 80.5335548,24 L68.4457268,24 L68.9773674,20.1438849 L70.0686297,21.2374101 L77.3157302,21.2374101 Z M75.9726382,8.57553957 L74.9653192,15.1654676 L78.1271816,15.1654676 L79.1904628,8.57553957 L75.9726382,8.57553957 Z" id="形状"></path>
                <polygon id="路径" points="87.0651391 5.81294964 92.7173179 5.81294964 93.8925234 8.37410072 95.4035019 6.35971223 95.123691 5.81294964 101.0277 5.81294964 96.1030289 11.8848921 99.4327778 17.9568345 94.0604099 17.9568345 92.8852044 15.6834532 90.8146042 17.9568345 85.7220471 17.9568345 90.6467177 11.8848921 87.8765905 6.90647482"></polygon>
                <path d="M108.902376,4.97841727 L103.781838,4.97841727 L104.061648,1.66906475 L109.434016,1.66906475 L108.902376,4.97841727 Z M108.902376,5.81294964 L107.279473,17.9568345 L101.907105,17.9568345 L103.530008,6.61870504 L102.718556,5.81294964 L108.902376,5.81294964 Z" id="形状"></path>
                <path d="M120.162763,8.57553957 L117.308693,8.57553957 L117.056863,9.66906475 L111.684495,9.66906475 L112.495946,5.81294964 L125.647056,5.81294964 L124.024153,16.5755396 L125.115415,17.9568345 L112.495946,17.9568345 C111.954979,17.9568345 111.549253,17.7745803 111.278769,17.4100719 C111.008285,17.0455635 110.873044,16.5851319 110.873044,16.028777 L111.684495,10.7625899 L119.743047,10.7625899 L120.162763,8.57553957 Z M116.525222,13.5251799 L116.245412,15.1942446 L118.931596,15.1942446 L119.211406,13.5251799 L116.525222,13.5251799 Z" id="形状"></path>
                <path d="M140.377097,5.81294964 C140.918065,5.81294964 141.32379,6.0383693 141.594274,6.48920863 C141.864758,6.94004796 142,7.44364508 142,8 L140.656908,17.9568345 L128.56908,17.9568345 C128.028112,17.9568345 127.622387,17.7745803 127.351903,17.4100719 C127.081419,17.0455635 126.946177,16.5851319 126.946177,16.028777 L128.289269,5.81294964 L140.377097,5.81294964 Z M133.381826,8.57553957 L132.318545,15.1942446 L135.53637,15.1942446 L136.627632,8.57553957 L133.381826,8.57553957 Z" id="形状"></path>
            </g>
        </g>
    </g>
</svg>