<?xml version="1.0" encoding="UTF-8"?>
<svg width="2163px" height="2552px" viewBox="0 0 2163 2552" version="1.1" xmlns="http://www.w3.org/2000/svg" xmlns:xlink="http://www.w3.org/1999/xlink">
    <title>路径</title>
    <g id="页面-1" stroke="none" stroke-width="1" fill="none" fill-rule="evenodd" stroke-linejoin="round">
        <polygon id="路径" stroke="#979797" stroke-width="12" points="1117 2377 1190 2394 1220 2474 1302 2493 1379 2546 1451 2502 1551 2533 1646 2451 1630 2280 1551 2110 1480 2067 1445 1968 1361 1938 1258 1784 1258 1665 1240 1575 1353 1506 1426 1515 1583 1411 1775 1483 1897 1506 1910 1396 2015 1371 2035 1333 1993 1285 2007 1081 1979 1016 2029 1016 2143 1075 2157 1000 2114 870 2062 775 1873 685 1775 585 1786 526 1687 458 1750 404 2089 224 2054 146 2077 89 2035 13 1836 6 1646 6 1543 95 1296 162 1277 206 1314 296 1240 411 1153 382 1117 336 992 365 796 296 709 445 616 469 584 544 433 639 433 725 34 760 6 815 52 948 169 994 215 1158 98 1320 78 1411 147 1531 328 1575 433 1575 456 1665 594 1763 639 1860 647 1948 796 1991 757 2043 998 2162 1064 2146 1147 2265"></polygon>
    </g>
</svg>